/* XPM */
static char * hexahedra_xpm[] = {
"32 32 156 2",
"  	c None",
". 	c #505557",
"+ 	c #53585A",
"@ 	c #4C5153",
"# 	c #7C8082",
"$ 	c #DBDDDF",
"% 	c #E1E3E5",
"& 	c #85898B",
"* 	c #4D5153",
"= 	c #676B6D",
"- 	c #C4C7C9",
"; 	c #F6F8FA",
"> 	c #929597",
", 	c #575D5E",
"' 	c #AAAEB0",
") 	c #F2F4F6",
"! 	c #D2D5D7",
"~ 	c #515557",
"{ 	c #4E5455",
"] 	c #919496",
"^ 	c #E8EAEC",
"/ 	c #ECEEF0",
"( 	c #636769",
"_ 	c #777C7E",
": 	c #D7DADC",
"< 	c #EBEDEF",
"[ 	c #838789",
"} 	c #63686A",
"| 	c #BFC2C4",
"1 	c #EDF0F2",
"2 	c #9CA0A2",
"3 	c #C7CACC",
"4 	c #AEB2B4",
"5 	c #555A5C",
"6 	c #A6A9AB",
"7 	c #F1F3F5",
"8 	c #F5F7F9",
"9 	c #B6B8BA",
"0 	c #5C6163",
"a 	c #979B9D",
"b 	c #D5D8DA",
"c 	c #525659",
"d 	c #575C5E",
"e 	c #E6E8EA",
"f 	c #CED2D4",
"g 	c #6F7375",
"h 	c #6F7476",
"i 	c #EDEFF1",
"j 	c #656A6C",
"k 	c #707577",
"l 	c #E4E6E8",
"m 	c #878B8D",
"n 	c #4D5254",
"o 	c #DFE2E4",
"p 	c #5E6365",
"q 	c #B7BABC",
"r 	c #6A6E70",
"s 	c #A6AAAC",
"t 	c #4C5053",
"u 	c #BDC0C2",
"v 	c #B2B6B8",
"w 	c #525759",
"x 	c #9EA1A3",
"y 	c #EEF0F2",
"z 	c #929698",
"A 	c #D8DADC",
"B 	c #84888A",
"C 	c #E0E2E4",
"D 	c #4D5053",
"E 	c #6B7072",
"F 	c #F0F2F4",
"G 	c #EEF1F3",
"H 	c #686C6E",
"I 	c #6C7072",
"J 	c #CBCED0",
"K 	c #54595B",
"L 	c #DCDEE0",
"M 	c #8B8F91",
"N 	c #5B6062",
"O 	c #B2B5B7",
"P 	c #F4F6F8",
"Q 	c #A8ACAE",
"R 	c #A3A6A8",
"S 	c #B8BBBD",
"T 	c #B6BABC",
"U 	c #989C9E",
"V 	c #C2C5C7",
"W 	c #9A9D9F",
"X 	c #DEE0E2",
"Y 	c #7E8284",
"Z 	c #DADCDE",
"` 	c #7A7E80",
" .	c #6A6F71",
"..	c #C6C9CB",
"+.	c #EAECEE",
"@.	c #94989A",
"#.	c #4F5456",
"$.	c #8F9294",
"%.	c #585D5F",
"&.	c #ACAFB1",
"*.	c #F3F5F7",
"=.	c #595E60",
"-.	c #BABEC0",
";.	c #E9EBED",
">.	c #C9CCCE",
",.	c #696E70",
"'.	c #DDE0E2",
").	c #565B5D",
"!.	c #797D7F",
"~.	c #DEE1E3",
"{.	c #818587",
"].	c #6D7273",
"^.	c #64696B",
"/.	c #C0C4C6",
"(.	c #9B9EA0",
"_.	c #515658",
":.	c #939698",
"<.	c #F1F4F6",
"[.	c #B5B8BA",
"}.	c #5D6164",
"|.	c #8D9193",
"1.	c #6E7375",
"2.	c #4E5355",
"3.	c #8D9092",
"4.	c #545A5B",
"5.	c #B0B4B6",
"6.	c #74787A",
"7.	c #D4D6D8",
"8.	c #C0C2C4",
"9.	c #64686A",
"0.	c #616567",
"a.	c #BBBEC0",
"b.	c #A2A6A8",
"c.	c #55595B",
"d.	c #5D6264",
"e.	c #A1A4A6",
"f.	c #EFF2F4",
"g.	c #BCBEC0",
"h.	c #CED1D3",
"i.	c #8C9092",
"j.	c #4E5354",
"k.	c #868A8C",
"l.	c #E2E5E7",
"m.	c #E2E4E6",
"n.	c #D3D6D8",
"o.	c #4E5255",
"p.	c #535859",
"q.	c #A0A3A5",
"r.	c #EFF1F3",
"s.	c #5F6366",
"t.	c #B9BCBE",
"u.	c #63676A",
"v.	c #717678",
"w.	c #D1D4D6",
"x.	c #D6D9DB",
"y.	c #777B7D",
"                              . +                               ",
"                          @ # $ % & *                           ",
"                      @ = - ; ; ; ; >                           ",
"                    , ' ) ; ; ; ; ! ~                           ",
"                { ] ^ ; ; ; ; ; / (                             ",
"            @ _ : ; ; ; < ; ; ; [                               ",
"          } | ; ; ; 1 2 3 ; ; 4 @                               ",
"      5 6 7 ; ; 8 9 0 a ; ; b c                                 ",
"    d e ; ; ; f g @ h ) ; i j                         @ k 0     ",
"    0 ; ; l m n   d o ; ; m                         p q 8 r     ",
"    0 ; ; s t   @ u ; ; v @                     w x y ; ; r     ",
"    0 ; ; s     z ; ; A +                   @ B C ; ; ; ; r     ",
"    0 ; ; s D E F ; G H                 @ I J ; ; ; ; ; ; r     ",
"    0 ; ; s K L ; ; M                 N O P ; ; ) Q R ; ; r     ",
"    0 ; ; s S ; ; T @             ~ U / ; ; ; V j @ W ; ; r     ",
"    0 ; ; X ; ; $ K           @ Y L ; ; ; Z ` @     W ; ; r     ",
"    0 ; ; ; ; F  .        @ H ..; ; ; +.@.#.        W ; ; r     ",
"    0 ; ; ; ; $.        %.&.*.; ; P 4 =.            W ; ; r     ",
"    0 ; ; ; -.@     #.z ;.; ; ; >.,.@               W ; ; r     ",
"    0 ; ; '.).  @ !.A ; ; ; ~.{.@                   W ; ; r     ",
"    0 ; 7 ].@ ^./.; ; ; i (._.                      W ; ; r     ",
"    0 ; :.5 s <.; ; 8 [.}.                        @ W ; ; r     ",
"    0 | |.e ; ; ; f 1.@                         2.3.e ; ; r     ",
"    4.- ; ; ; ; 5.n                         * 6.7.; ; ; l p     ",
"      c 2 1 ; ; ; 8.9.                    0.a.; ; ; F b.c.      ",
"        @ d.[.8 ; ; 7 6 ).            K e.f.; ; ; g.0.@         ",
"            @ 1.h.; ; ; e i.j.    @ k.l.; ; ; 7.6.@             ",
"                * k.m.; ; ; n.6.1.h.; ; ; e i.o.                ",
"                    p.q.r.; ; ; 8 ; ; 7 6 5                     ",
"                      @ s.t.8 ; ; ; | u.@                       ",
"                          @ v.w.x.y.@                           ",
"                              n 2.                              "};
